<svg xmlns="http://www.w3.org/2000/svg" viewBox="0 0 1000 1000"><path d="M813.958 611.111c-5.985 12.685-13.001 24.997-21.515 36.644l78.434 24.716c14.648 4.612 22.732 20.182 18.121 34.831-3.743 11.828-14.648 19.423-26.476 19.423-2.767 0-5.588-.434-8.355-1.302L750.14 692.641c-61.091 52.09-150.372 85.137-250.14 85.137s-189.05-33.044-250.136-85.134l-104.058 32.78c-2.794.868-5.588 1.302-8.355 1.302-11.8 0-22.759-7.596-26.503-19.423-4.612-14.648 3.526-30.22 18.148-34.831l78.46-24.716c-8.515-11.648-15.53-23.96-21.515-36.644H111.11c-15.354 0-27.778-12.202-27.778-27.556 0-15.354 12.424-27.556 27.778-27.556h57.729c-1.346-9.778-2.173-18.823-2.173-28.222V222.222l172.885 86.443c47.611-19.653 102.265-30.887 160.448-30.887s112.837 11.234 160.448 30.887l172.885-86.443v305.556c0 9.399-.828 18.444-2.173 28.222h57.729c15.354 0 27.778 12.202 27.778 27.556 0 15.354-12.424 27.556-27.778 27.556h-74.93z"/></svg>