<svg xmlns="http://www.w3.org/2000/svg" viewBox="0 0 833.333 1000"><path d="M805.554 611.112c15.354 0 27.779-12.204 27.779-27.558S820.908 556 805.554 556h-57.729c1.346-9.779 2.175-18.825 2.175-28.221V222.221l-172.883 86.444c-47.612-19.653-102.267-30.889-160.45-30.889s-112.839 11.235-160.449 30.889L83.333 222.221v305.558c0 9.396.827 18.442 2.175 28.221H27.779C12.423 556 0 568.2 0 583.554s12.423 27.558 27.779 27.558h74.931c5.984 12.683 12.998 24.996 21.512 36.642l-78.458 24.717c-14.623 4.612-22.761 20.183-18.148 34.833 3.743 11.825 14.702 19.421 26.502 19.421 2.767 0 5.562-.433 8.354-1.3l104.06-32.783c61.086 52.092 150.365 85.137 250.135 85.137 99.771 0 189.05-33.05 250.142-85.137l104.025 32.783c2.767.867 5.588 1.3 8.354 1.3 11.829 0 22.733-7.596 26.479-19.421 4.608-14.65-3.475-30.221-18.121-34.833l-78.438-24.717c8.517-11.646 15.533-23.958 21.517-36.642h74.929zm-225.171 27.171c-1.121 1.896-28.525 46.612-90.8 46.612-40.1 0-61.363-20.917-72.833-32.35-11.742 11.496-33.388 32.35-73 32.35-54.932 0-88.115-42.867-89.498-44.7-6.978-9.154-5.188-22.217 3.988-29.171 9.155-6.958 22.135-5.171 29.114 3.883.346.45 22.583 28.321 56.397 28.321 22.992 0 34.242-11.046 44.171-20.771 7.504-7.367 15.987-15.688 28.746-15.688 13.183 0 21.729 8.525 29.275 16.033 10.071 10.05 20.487 20.425 43.642 20.425 38.271 0 54.871-26.042 55.033-26.304 5.858-9.871 18.617-13.125 28.563-7.204 9.869 5.881 13.102 18.677 7.202 28.564z"/></svg>