<svg xmlns="http://www.w3.org/2000/svg" viewBox="0 0 833.1 1000"><path d="M832.6 366.9l-.6-3-.5-1.7-.9-2.6-.8-1.7-1.2-2.4-1-1.7-1.5-2.2-1.2-1.5-1.8-2-1.4-1.4-2-1.7-1.6-1.2-.6-.5L436.6 89.4c-12-8-27.7-8-39.7 0L16 343.3l-.6.5-1.6 1.2-2 1.7-1.4 1.4-1.8 2-1.2 1.5-1.5 2.2-1 1.7-1.2 2.4-.8 1.7-1 2.6-.5 1.7-.6 3-.3 1.5-.5 4.7V627l.3 4.7.3 1.5.6 3 .5 1.7.9 2.6.8 1.7 1.2 2.4 1 1.6 1.5 2.2 1.2 1.5 1.8 2 1.4 1.4 2 1.7 1.6 1.2.6.5 380.8 253.9c6 4 12.9 6 19.9 6 6.9 0 13.8-2 19.9-6l380.8-253.9.6-.5 1.6-1.2 2-1.7 1.4-1.4 1.8-2 1.2-1.5 1.5-2.2 1-1.6 1.2-2.4.8-1.7.9-2.6.5-1.7.6-3 .3-1.5.3-4.7V373.1l-.3-4.7.1-1.5zm-416 217.8L290 500l126.6-84.7L543.3 500l-126.7 84.7zm-35.8-231.6L225.6 456.9l-125.3-83.8 280.5-187v167zM161.2 500l-89.6 59.9V440.1l89.6 59.9zm64.4 43.1l155.2 103.8v167l-280.5-187 125.3-83.8zm226.8 103.8l155.2-103.8L733 626.9l-280.5 187v-167zM672.1 500l89.6-59.9v119.8L672.1 500zm-64.4-43.1L452.4 353.1v-167l280.5 187c.1.1-125.2 83.8-125.2 83.8z"/></svg>