<svg xmlns="http://www.w3.org/2000/svg" viewBox="0 0 833.3 1000"><path d="M833.3 510.3c0 184-119.3 340.1-284.7 395.3-21.1 4.1-28.7-8.9-28.7-20 0-13.7.5-58.6.5-114.3 0-38.9-13.3-64.3-28.3-77.2 92.8-10.3 190.3-45.5 190.3-205.6 0-45.5-16.1-82.7-42.8-111.8 4.3-10.5 18.6-52.9-4.2-110.3 0 0-34.9-11.2-114.5 42.7-33.3-9.3-68.9-13.9-104.3-14-35.4.2-71.1 4.8-104.3 14-79.6-53.9-114.6-42.7-114.6-42.7-22.6 57.3-8.3 99.7-4 110.3-26.7 29.1-42.9 66.3-42.9 111.8 0 159.7 97.3 195.4 189.8 205.9-11.9 10.4-22.7 28.8-26.5 55.7-23.8 10.7-84.1 29-121.3-34.6 0 0-22-40-63.8-43 0 0-40.7-.5-2.9 25.3 0 0 27.3 12.8 46.3 61 0 0 24.5 81 140.4 55.8l.6 70.9c0 11-7.6 23.9-28.5 20.1C119.4 850.5 0 694.4 0 510.3 0 280.2 186.6 93.6 416.6 93.6c230.1 0 416.7 186.6 416.7 416.7z"/></svg>