<svg xmlns="http://www.w3.org/2000/svg" viewBox="0 0 833.333 1000"><path d="M604.167 916.667h-375C102.804 916.667 0 813.843 0 687.5v-375C0 186.137 102.804 83.333 229.167 83.333h375c126.343 0 229.167 102.804 229.167 229.167v375c-.001 126.343-102.825 229.167-229.167 229.167zm-375-750c-80.404 0-145.833 65.43-145.833 145.833v375c0 80.404 65.43 145.833 145.833 145.833h375C684.57 833.333 750 767.904 750 687.5v-375c0-80.404-65.43-145.833-145.833-145.833h-375zm187.5 552.083c-120.626 0-218.75-98.145-218.75-218.75 0-120.626 98.124-218.75 218.75-218.75 120.605 0 218.75 98.124 218.75 218.75 0 120.605-98.145 218.75-218.75 218.75zm0-354.167C342 364.583 281.25 425.334 281.25 500S342 635.417 416.667 635.417 552.083 574.666 552.083 500s-60.75-135.417-135.416-135.417zm220.833-137.5c-28.765 0-52.083 23.319-52.083 52.083s23.318 52.083 52.083 52.083 52.083-23.319 52.083-52.083-23.318-52.083-52.083-52.083z"/></svg>