<svg xmlns="http://www.w3.org/2000/svg" viewBox="0 0 833.3 1000"><path d="M833.3 500l-.7-14.1C825.1 262.4 642 83.3 416.7 83.3 186.5 83.3 0 269.9 0 500c0 12.2.7 24.1 1.8 35.9.9 10.7 2.5 21.3 4.2 31.7l.1 1c29.1 175.1 167 313 342.2 342l1.2.2c10.3 1.7 20.7 3.1 31.3 4.1 11.8 1.1 23.7 1.8 35.8 1.8 13.8 0 27.4-.8 40.7-2 211.1-20.6 376-198.3 376-414.7zm-239.9-98.9c43.2-6.8 89-18.3 137.9-35.9 17.8 41.4 27.7 87 27.7 134.9l-1.1 22.3c-61.8 26.9-117.4 43-169.5 51.4 6.6-36.5 10-71.1 9.6-103.7-.3-24.1-2.2-46.8-4.6-69zm105.9-94c-40.9 14.1-79.4 23.8-116.1 29.5-12.8-61.4-32.8-114.2-54.6-159.8 70 24.3 129.7 70.3 170.7 130.3zM416.7 842.2c-10.1 0-20.1-.6-30-1.5-29.9-66.5-52.8-132.4-67.1-196.7 31.2 3.1 63.5 5.1 96.8 5.5l24 .1c20.7 0 41.6-.6 62.7-1.6-18.2 59-45.2 123.6-80.5 194l-5.9.2zm.3-257.6c-37.8-.4-74.3-3.2-109.4-7.3-5-36.3-7.7-72-7.3-106.7.3-23 1.9-45 4-66.4 35.9 4.1 73.2 6.8 112 7.2l24 .2c29.1 0 58.5-.9 88.5-3.3 2.3 20.3 4 40.8 4.2 62.3.3 34.4-4.1 71.5-12.5 111.2-34.7 2.5-68.8 2.9-103.5 2.8zm-.3-426.8c9.8 0 19.5.7 29.1 1.5 27.8 48.3 56.2 109.9 72.7 185-34 2.3-67.4 2.6-101.4 2.3-35.7-.4-70.3-2.8-103.5-6.6 13.9-72.4 36.8-131.8 59.6-179.1 14.2-1.9 28.6-3.1 43.5-3.1zm-124 23.5c-17.2 43-33.1 92.5-43.6 149.3-41.2-7.1-78.8-16.2-113.2-25.9 38.5-55.4 93-98.6 156.8-123.4zM74.4 500c0-48.7 10.3-95 28.7-137.1 40.8 12 86.2 23.5 136.9 32.1-2.5 24.1-4.3 48.8-4.6 74.9-.3 31.9 2 64.5 5.9 97.4-64-11.6-119.4-27.6-165.7-43.3-.6-8-1.2-15.9-1.2-24zm14.1 96.7c47.5 14.5 101.9 28.5 163.3 38.4 12.2 62.3 32.2 126 58.4 190.1-106.5-34.9-190-120.5-221.7-228.5zM499 831.9c32.5-68.2 57.5-131.8 73.7-190.1 53.2-6.9 109.8-20.4 171.7-43.7C710.1 713.3 616.5 802.8 499 831.9z"/></svg>