<svg xmlns="http://www.w3.org/2000/svg" viewBox="0 0 833.3 1000"><path d="M687.5 625c-38.3 0-72.9 15.1-98.9 39.4L290.1 515.1c.5-5 1.5-10 1.5-15.1s-1-10.1-1.5-15.1l298.4-149.2c26 24.2 60.7 39.4 98.9 39.4 80.4 0 145.8-65.4 145.8-145.8s-65.3-146-145.7-146-145.8 65.4-145.8 145.8c0 11.9 1.8 23.4 4.6 34.5L257.9 407.8c-26.8-32.5-66.8-53.6-112-53.6C65.4 354.2 0 419.6 0 500s65.4 145.8 145.8 145.8c45.3 0 85.3-21.2 112-53.6l288.4 144.2c-2.7 11.1-4.6 22.5-4.6 34.5 0 80.4 65.4 145.8 145.8 145.8s145.8-65.4 145.8-145.8S767.9 625 687.5 625zm0-458.3c34.5 0 62.5 28 62.5 62.5s-28 62.5-62.5 62.5-62.5-28-62.5-62.5 28-62.5 62.5-62.5zM145.8 562.5c-34.5 0-62.5-28-62.5-62.5s28-62.5 62.5-62.5 62.5 28 62.5 62.5-28 62.5-62.5 62.5zm541.7 270.8c-34.5 0-62.5-28-62.5-62.5s28-62.5 62.5-62.5 62.5 28 62.5 62.5-28 62.5-62.5 62.5z"/></svg>