<svg xmlns="http://www.w3.org/2000/svg" viewBox="0 0 833.3 1000"><path d="M472.8 197.4c-86.6-48.7-194.5-56.1-287.7-22.5-61.2 22-116.7 63-150.9 118.8-31 50.4-42.7 113.2-27.7 170.8 15 63.9 59.3 117.5 113.2 153.2-10.1 29.5-20.2 59-29.6 88.7 34.1-17.7 67.8-36.2 101.8-54.2 41 13.1 84 19.4 127 18-11.2-32.9-13.9-68.2-8.7-102.5 8.2-47.6 33.9-91.1 69.5-123.4 59.9-56.1 144.8-79.7 225.6-74-15.2-74.1-67.2-136.8-132.5-172.9zM240.7 331.7c-6 29-44.9 43-67.6 23.5-26.3-18.5-19-64.7 12-73.9 30.3-11.6 64.7 19.2 55.6 50.4zm210.3-8.4c.3 33.4-44.2 54.2-69.2 31.5-26-18.5-18.6-63.8 11.9-73.2 27.2-10.6 59.4 12.4 57.3 41.7zm366.3 202.6c-21.1-47.9-61-85.8-107.3-109.2-81.7-41.5-183.4-41.1-264.8 1-56.7 29.1-103.9 81.2-117.4 144.6-11.1 46.6-1.1 96.9 23.6 137.6 36.8 61.1 103.4 100 172.6 112.6 50.1 10.2 102 4.2 150.6-10 29.1 11.4 55.3 29.7 83.6 43.3-7.2-24.5-15-48.8-23.4-72.9 31.7-22.6 60.5-50.7 77.9-86 25.8-49.4 27.4-110.3 4.6-161zm-284.4 18.3c-7.2 22.6-40.2 29.5-56 12.2-17.5-15.9-10.7-49.2 12.2-56.3 25.6-10.8 55 18.6 43.8 44.1zm166.5 3.2c-8.7 20.4-39.2 25.1-54.3 9.3-7.3-6.5-9.1-16.5-12-25.3 3.9-15.9 14.5-32.4 32.5-33.1 24.9-3.5 46.8 26.8 33.8 49.1z"/></svg>