<svg xmlns="http://www.w3.org/2000/svg" viewBox="0 0 833.3 1000"><path d="M833.3 500c0 230.1-186.5 416.7-416.7 416.7-43 0-84.4-6.5-123.4-18.6 17-27.7 42.4-73.1 51.8-109.2l26-99c13.6 25.9 53.3 47.9 95.5 47.9 125.6 0 216.2-115.6 216.2-259.2C682.7 341 570.4 238 425.8 238 246 238 150.5 358.7 150.5 490.1c0 61.1 32.5 137.2 84.6 161.4 7.9 3.7 12.1 2 13.9-5.6l11.6-47.3c1-4.2.5-7.8-2.9-11.9-17.2-20.9-31-59.3-31-95.1 0-91.9 69.6-180.8 188.1-180.8 102.4 0 174 69.8 174 169.5C589 593 532 671.1 458 671.1c-40.9 0-71.5-33.8-61.7-75.3 11.8-49.5 34.5-103 34.5-138.7 0-32-17.2-58.7-52.7-58.7-41.8 0-75.4 43.2-75.4 101.2 0 36.9 12.5 61.9 12.5 61.9s-41.4 174.5-49 207c-8.4 36-5.1 86.6-1.4 119.5C109.8 827.3 0 676.5 0 500 0 269.9 186.5 83.3 416.7 83.3S833.3 269.9 833.3 500z"/></svg>