<svg xmlns="http://www.w3.org/2000/svg" viewBox="0 0 833.3 1000"><path d="M791.7 83.3h-750C18.7 83.3 0 102 0 125v750c0 23 18.7 41.7 41.7 41.7h750c23 0 41.7-18.7 41.7-41.7V125c-.1-23-18.7-41.7-41.7-41.7zM250 750h-83.3V416.7H250V750zm-41.6-375c-34.6 0-62.5-28-62.5-62.5s27.9-62.5 62.5-62.5c34.5 0 62.5 28 62.5 62.5S242.8 375 208.4 375zM625 750h-83.3V625c0-104.2-8.5-125.5-58.3-125.5-53.9 0-66.7 42.1-66.7 85.6V750h-83.3V416.7h83.3v41.7s18.7-41.7 104.2-41.7c65.7 0 104.2 56.6 104.2 150.5L625 750z"/></svg>