<svg xmlns="http://www.w3.org/2000/svg" viewBox="0 0 833.3 1000"><path d="M748 330.1l.5 22.1c0 225.9-171.9 486.4-486.4 486.4-96.5 0-186.4-28.3-262.1-76.8 13.4 1.6 27 2.4 40.8 2.4 80.1 0 153.8-27.3 212.3-73.2-74.8-1.4-138-50.8-159.7-118.7 10.5 2 21.2 3.1 32.2 3.1 15.6 0 30.7-2.1 45-6-78.2-15.8-137.1-84.9-137.1-167.7v-2.2c23 12.8 49.4 20.5 77.5 21.4-45.9-30.6-76-83-76-142.3 0-31.3 8.4-60.7 23.2-86 84.3 103.5 210.3 171.5 352.4 178.6-2.9-12.5-4.4-25.5-4.4-39 0-94.4 76.5-170.9 170.9-170.9 49.2 0 93.6 20.7 124.8 54 39-7.7 75.5-21.9 108.6-41.5-12.7 39.9-39.9 73.4-75.2 94.6 34.6-4.1 67.5-13.3 98.2-26.9-23.1 34.3-52.1 64.5-85.5 88.6z"/></svg>